<svg xmlns="http://www.w3.org/2000/svg" viewBox="0 0 800 460"><defs><linearGradient id="s" x2="0" y2="1"><stop stop-color="#d3dcd0"/><stop offset="1" stop-color="#efe3ce"/></linearGradient><linearGradient id="m" x2="0" y2="1"><stop stop-color="#557769"/><stop offset="1" stop-color="#244b3d"/></linearGradient></defs><rect width="800" height="460" fill="url(#s)"/><circle cx="590" cy="119" r="54" fill="#f4d3a1"/><path d="M0 258 123 120 249 238 410 98 590 264 800 162V460H0Z" fill="#9cae97"/><path d="M0 308 204 214 415 313 613 206 800 273V460H0Z" fill="url(#m)"/><path d="M0 400Q350 283 800 381V460H0Z" fill="#c0b89b"/><path d="M325 460 404 320 439 320 480 460" fill="#ece0c3"/><g fill="#6d4332"><path d="M365 217h20v172h-20zM465 217h20v172h-20z"/><path d="M340 234h170v17H340zM332 208q95 19 187 0l-9 25H342z"/></g><g fill="#ce794a"><ellipse cx="95" cy="296" rx="92" ry="73"/><ellipse cx="719" cy="300" rx="91" ry="58"/><ellipse cx="211" cy="262" rx="54" ry="60"/></g><g stroke="#5e5940" stroke-width="11"><path d="M96 320v100m116-128v79m513-49v91"/></g><g fill="#e5a664"><ellipse cx="21" cy="332" rx="74" ry="51"/><ellipse cx="779" cy="337" rx="81" ry="49"/></g></svg>
